<svg width="88" height="126" viewBox="0 0 88 126" fill="none" xmlns="http://www.w3.org/2000/svg">
<path d="M2 64.9677L0.336162 63.8579C-0.124258 64.5482 -0.110647 65.4511 0.37037 66.1272L2 64.9677ZM44 2L45.6638 0.890206C45.2929 0.334036 44.6685 0 44 0C43.3315 0 42.7071 0.334036 42.3362 0.890206L44 2ZM86 64.9677L87.6296 66.1272C88.1106 65.4511 88.1243 64.5482 87.6638 63.8579L86 64.9677ZM44 124L42.3704 125.159C42.7456 125.687 43.3528 126 44 126C44.6472 126 45.2544 125.687 45.6296 125.159L44 124ZM73.7076 42.9344C73.0947 42.0155 71.8529 41.7674 70.934 42.3803C70.0151 42.9932 69.767 44.235 70.38 45.154L73.7076 42.9344ZM57.6089 26.0072C58.2218 26.9261 59.4636 27.1741 60.3825 26.5612C61.3014 25.9483 61.5495 24.7065 60.9366 23.7876L57.6089 26.0072ZM3.66384 66.0775L45.6638 3.10979L42.3362 0.890206L0.336162 63.8579L3.66384 66.0775ZM84.3704 63.8083L42.3704 122.841L45.6296 125.159L87.6296 66.1272L84.3704 63.8083ZM45.6296 122.841L3.62963 63.8083L0.37037 66.1272L42.3704 125.159L45.6296 122.841ZM1.66178 66.9389C34.6562 72.6002 53.2734 72.9784 86.3594 66.9352L85.6406 63.0003C53.0624 68.9507 34.92 68.587 2.33822 62.9965L1.66178 66.9389ZM42 2V124H46V2H42ZM70.38 45.154L84.3362 66.0775L87.6638 63.8579L73.7076 42.9344L70.38 45.154ZM42.3362 3.10979L57.6089 26.0072L60.9366 23.7876L45.6638 0.890206L42.3362 3.10979Z" fill="white"/>
</svg>
