<svg width="24" height="24" viewBox="0 0 24 24" fill="none" xmlns="http://www.w3.org/2000/svg">
<path d="M3.22504 9.225C3.52504 9.6 3.75004 10.05 3.90004 10.5C4.05004 10.95 4.12504 11.475 4.12504 12C4.12504 12.525 4.05004 13.05 3.90004 13.5C3.75004 13.95 3.52504 14.4 3.22504 14.775C2.85004 15.3 2.92504 16.05 3.45004 16.425C3.97504 16.8 4.72504 16.725 5.10004 16.2C5.55004 15.6 5.85004 15 6.15004 14.25C6.45004 13.5 6.52504 12.75 6.52504 12C6.52504 11.25 6.37504 10.5 6.15004 9.75C5.92504 9.075 5.55004 8.4 5.10004 7.8C4.72504 7.275 3.97504 7.2 3.45004 7.575C2.92504 7.95 2.85004 8.7 3.22504 9.225Z" fill="white"/>
<path d="M7.35003 7.05C8.25003 8.475 8.77503 10.2 8.77503 12C8.77503 13.8 8.25003 15.525 7.35003 16.95C6.97503 17.475 7.20003 18.225 7.72503 18.6C8.32504 18.975 9.00003 18.75 9.37504 18.225C10.5 16.425 11.175 14.325 11.175 12C11.175 9.75 10.5 7.575 9.37504 5.775C9.00003 5.25 8.25003 5.025 7.72503 5.4C7.20003 5.775 6.97503 6.45 7.35003 7.05Z" fill="white"/>
<path d="M11.7 4.8C12.975 6.9 13.65 9.375 13.65 12C13.65 14.625 12.9 17.1 11.7 19.2C11.4 19.8 11.55 20.475 12.15 20.85C12.75 21.15 13.425 21 13.8 20.4C15.3 17.925 16.125 15.075 16.125 12C16.125 8.925 15.3 6.075 13.8 3.6C13.5 3 12.75 2.85 12.15 3.15C11.55 3.525 11.4 4.2 11.7 4.8Z" fill="white"/>
<path d="M16.05 2.55C17.625 5.325 18.6 8.55 18.6 12C18.6 15.45 17.7 18.675 16.05 21.45C15.75 22.05 15.9 22.725 16.5 23.1C17.1 23.4 17.775 23.25 18.15 22.65C19.95 19.5 21 15.9 21 12C21 8.1 19.95 4.5 18.15 1.35C17.85 0.75 17.1 0.6 16.5 0.9C15.9 1.2 15.75 1.95 16.05 2.55Z" fill="white"/>
</svg>
