<svg width="24" height="24" viewBox="0 0 24 24" fill="none" xmlns="http://www.w3.org/2000/svg">
<path d="M21 22C21.5523 22 22 21.5523 22 21C22 20.4477 21.5523 20 21 20V22ZM4 3C4 2.44772 3.55228 2 3 2C2.44772 2 2 2.44772 2 3H4ZM4.09202 20.782L4.54601 19.891L4.54601 19.891L4.09202 20.782ZM3.21799 19.908L2.32698 20.362H2.32698L3.21799 19.908ZM6.23178 14.3598C5.87821 14.7841 5.93554 15.4147 6.35982 15.7682C6.78409 16.1218 7.41466 16.0645 7.76822 15.6402L6.23178 14.3598ZM12 9L12.7071 8.29289C12.5084 8.09422 12.2354 7.9883 11.9547 8.00103C11.674 8.01376 11.4116 8.14398 11.2318 8.35982L12 9ZM16 13L15.2929 13.7071C15.4916 13.9058 15.7646 14.0117 16.0453 13.999C16.326 13.9862 16.5884 13.856 16.7682 13.6402L16 13ZM21.7682 7.64018C22.1218 7.21591 22.0645 6.58534 21.6402 6.23178C21.2159 5.87821 20.5853 5.93554 20.2318 6.35982L21.7682 7.64018ZM21 20H6.2V22H21V20ZM4 17.8V3H2V17.8H4ZM6.2 20C5.62345 20 5.25117 19.9992 4.96784 19.9761C4.69617 19.9539 4.59545 19.9162 4.54601 19.891L3.63803 21.673C4.01641 21.8658 4.40963 21.9371 4.80497 21.9694C5.18864 22.0008 5.65645 22 6.2 22V20ZM2 17.8C2 18.3436 1.99922 18.8114 2.03057 19.195C2.06287 19.5904 2.13419 19.9836 2.32698 20.362L4.10899 19.454C4.0838 19.4045 4.04612 19.3038 4.02393 19.0322C4.00078 18.7488 4 18.3766 4 17.8H2ZM4.54601 19.891C4.35785 19.7951 4.20487 19.6422 4.10899 19.454L2.32698 20.362C2.6146 20.9265 3.07354 21.3854 3.63803 21.673L4.54601 19.891ZM7.76822 15.6402L12.7682 9.64018L11.2318 8.35982L6.23178 14.3598L7.76822 15.6402ZM16.7682 13.6402L21.7682 7.64018L20.2318 6.35982L15.2318 12.3598L16.7682 13.6402ZM11.2929 9.70711L15.2929 13.7071L16.7071 12.2929L12.7071 8.29289L11.2929 9.70711Z" fill="white"/>
</svg>
